<?xml version="1.0" standalone="no"?>
<!DOCTYPE svg PUBLIC "-//W3C//DTD SVG 1.0//EN" "http://www.w3.org/TR/2001/REC-SVG-20010904/DTD/svg10.dtd">
<svg xmlns="http://www.w3.org/2000/svg" xmlns:xlink="http://www.w3.org/1999/xlink" id="body_1" width="1140" height="600">

<g transform="matrix(0.15384617 0 0 0.15384617 0 0)">
    <path d="M0 0L7410 0L7410 3900L0 3900z" stroke="none" fill="#B22234" fill-rule="nonzero" />
    <path d="M0 450L7410 450zM7410 1050L0 1050zM0 1650L7410 1650zM7410 2250L0 2250zM0 2850L7410 2850zM7410 3450L0 3450" stroke="#FFFFFF" stroke-width="300" fill="#000000" fill-rule="nonzero" />
    <path d="M0 0L2964 0L2964 2100L0 2100z" stroke="none" fill="#3C3B6E" fill-rule="nonzero" />
	<g>
		<g>
			<g>
				<g>
					<g>
                        <path transform="matrix(1 0 0 1 988 210)"  d="M247 90L317.53424 307.08203L132.87321 172.91795L361.12677 172.91795L176.46577 307.08203L247 90z" stroke="none" fill="#FFFFFF" fill-rule="nonzero" />
                        <path transform="matrix(1 0 0 1 988 210)"  d="M247 90L317.53424 307.08203L132.87321 172.91795L361.12677 172.91795L176.46577 307.08203L247 90z" stroke="none" fill="#FFFFFF" fill-rule="nonzero" />
                        <path transform="matrix(1 0 0 1 988 210)"  d="M247 90L317.53424 307.08203L132.87321 172.91795L361.12677 172.91795L176.46577 307.08203L247 90z" stroke="none" fill="#FFFFFF" fill-rule="nonzero" />
                        <path transform="matrix(1 0 0 1 988 210)"  d="M247 90L317.53424 307.08203L132.87321 172.91795L361.12677 172.91795L176.46577 307.08203L247 90z" stroke="none" fill="#FFFFFF" fill-rule="nonzero" />
					</g>
                    <path transform="matrix(1 0 0 1 988 210)"  d="M247 90L317.53424 307.08203L132.87321 172.91795L361.12677 172.91795L176.46577 307.08203L247 90z" stroke="none" fill="#FFFFFF" fill-rule="nonzero" />
				</g>
				<g transform="matrix(1 0 0 1 247 210)">
                    <path transform="matrix(1 0 0 1 988 210)"  d="M247 90L317.53424 307.08203L132.87321 172.91795L361.12677 172.91795L176.46577 307.08203L247 90z" stroke="none" fill="#FFFFFF" fill-rule="nonzero" />
                    <path transform="matrix(1 0 0 1 988 210)"  d="M247 90L317.53424 307.08203L132.87321 172.91795L361.12677 172.91795L176.46577 307.08203L247 90z" stroke="none" fill="#FFFFFF" fill-rule="nonzero" />
                    <path transform="matrix(1 0 0 1 988 210)"  d="M247 90L317.53424 307.08203L132.87321 172.91795L361.12677 172.91795L176.46577 307.08203L247 90z" stroke="none" fill="#FFFFFF" fill-rule="nonzero" />
                    <path transform="matrix(1 0 0 1 988 210)"  d="M247 90L317.53424 307.08203L132.87321 172.91795L361.12677 172.91795L176.46577 307.08203L247 90z" stroke="none" fill="#FFFFFF" fill-rule="nonzero" />
				</g>
			</g>
			<g transform="matrix(1 0 0 1 494 0)">
				<g>
					<g>
                        <path transform="matrix(1 0 0 1 988 210)"  d="M247 90L317.53424 307.08203L132.87321 172.91795L361.12677 172.91795L176.46577 307.08203L247 90z" stroke="none" fill="#FFFFFF" fill-rule="nonzero" />
                        <path transform="matrix(1 0 0 1 988 210)"  d="M247 90L317.53424 307.08203L132.87321 172.91795L361.12677 172.91795L176.46577 307.08203L247 90z" stroke="none" fill="#FFFFFF" fill-rule="nonzero" />
                        <path transform="matrix(1 0 0 1 988 210)"  d="M247 90L317.53424 307.08203L132.87321 172.91795L361.12677 172.91795L176.46577 307.08203L247 90z" stroke="none" fill="#FFFFFF" fill-rule="nonzero" />
                        <path transform="matrix(1 0 0 1 988 210)"  d="M247 90L317.53424 307.08203L132.87321 172.91795L361.12677 172.91795L176.46577 307.08203L247 90z" stroke="none" fill="#FFFFFF" fill-rule="nonzero" />
					</g>
                    <path transform="matrix(1 0 0 1 988 210)"  d="M247 90L317.53424 307.08203L132.87321 172.91795L361.12677 172.91795L176.46577 307.08203L247 90z" stroke="none" fill="#FFFFFF" fill-rule="nonzero" />
				</g>
				<g transform="matrix(1 0 0 1 494 420)">
                    <path transform="matrix(1 0 0 1 988 210)"  d="M247 90L317.53424 307.08203L132.87321 172.91795L361.12677 172.91795L176.46577 307.08203L247 90z" stroke="none" fill="#FFFFFF" fill-rule="nonzero" />
                    <path transform="matrix(1 0 0 1 988 210)"  d="M247 90L317.53424 307.08203L132.87321 172.91795L361.12677 172.91795L176.46577 307.08203L247 90z" stroke="none" fill="#FFFFFF" fill-rule="nonzero" />
                    <path transform="matrix(1 0 0 1 988 210)"  d="M247 90L317.53424 307.08203L132.87321 172.91795L361.12677 172.91795L176.46577 307.08203L247 90z" stroke="none" fill="#FFFFFF" fill-rule="nonzero" />
                    <path transform="matrix(1 0 0 1 988 210)"  d="M247 90L317.53424 307.08203L132.87321 172.91795L361.12677 172.91795L176.46577 307.08203L247 90z" stroke="none" fill="#FFFFFF" fill-rule="nonzero" />
				</g>
			</g>
		</g>
		<g transform="matrix(1 0 0 1 988 0)">
			<g>
				<g>
					<g>
                        <path transform="matrix(1 0 0 1 988 210)"  d="M247 90L317.53424 307.08203L132.87321 172.91795L361.12677 172.91795L176.46577 307.08203L247 90z" stroke="none" fill="#FFFFFF" fill-rule="nonzero" />
                        <path transform="matrix(1 0 0 1 988 210)"  d="M247 90L317.53424 307.08203L132.87321 172.91795L361.12677 172.91795L176.46577 307.08203L247 90z" stroke="none" fill="#FFFFFF" fill-rule="nonzero" />
                        <path transform="matrix(1 0 0 1 988 210)"  d="M247 90L317.53424 307.08203L132.87321 172.91795L361.12677 172.91795L176.46577 307.08203L247 90z" stroke="none" fill="#FFFFFF" fill-rule="nonzero" />
                        <path transform="matrix(1 0 0 1 988 210)"  d="M247 90L317.53424 307.08203L132.87321 172.91795L361.12677 172.91795L176.46577 307.08203L247 90z" stroke="none" fill="#FFFFFF" fill-rule="nonzero" />
					</g>
                    <path transform="matrix(1 0 0 1 988 210)"  d="M247 90L317.53424 307.08203L132.87321 172.91795L361.12677 172.91795L176.46577 307.08203L247 90z" stroke="none" fill="#FFFFFF" fill-rule="nonzero" />
				</g>
				<g transform="matrix(1 0 0 1 494 420)">
                    <path transform="matrix(1 0 0 1 988 210)"  d="M247 90L317.53424 307.08203L132.87321 172.91795L361.12677 172.91795L176.46577 307.08203L247 90z" stroke="none" fill="#FFFFFF" fill-rule="nonzero" />
                    <path transform="matrix(1 0 0 1 988 210)"  d="M247 90L317.53424 307.08203L132.87321 172.91795L361.12677 172.91795L176.46577 307.08203L247 90z" stroke="none" fill="#FFFFFF" fill-rule="nonzero" />
                    <path transform="matrix(1 0 0 1 988 210)"  d="M247 90L317.53424 307.08203L132.87321 172.91795L361.12677 172.91795L176.46577 307.08203L247 90z" stroke="none" fill="#FFFFFF" fill-rule="nonzero" />
                    <path transform="matrix(1 0 0 1 988 210)"  d="M247 90L317.53424 307.08203L132.87321 172.91795L361.12677 172.91795L176.46577 307.08203L247 90z" stroke="none" fill="#FFFFFF" fill-rule="nonzero" />
				</g>
			</g>
			<g transform="matrix(1 0 0 1 988 0)">
				<g>
					<g>
                        <path transform="matrix(1 0 0 1 988 210)"  d="M247 90L317.53424 307.08203L132.87321 172.91795L361.12677 172.91795L176.46577 307.08203L247 90z" stroke="none" fill="#FFFFFF" fill-rule="nonzero" />
                        <path transform="matrix(1 0 0 1 988 210)"  d="M247 90L317.53424 307.08203L132.87321 172.91795L361.12677 172.91795L176.46577 307.08203L247 90z" stroke="none" fill="#FFFFFF" fill-rule="nonzero" />
                        <path transform="matrix(1 0 0 1 988 210)"  d="M247 90L317.53424 307.08203L132.87321 172.91795L361.12677 172.91795L176.46577 307.08203L247 90z" stroke="none" fill="#FFFFFF" fill-rule="nonzero" />
                        <path transform="matrix(1 0 0 1 988 210)"  d="M247 90L317.53424 307.08203L132.87321 172.91795L361.12677 172.91795L176.46577 307.08203L247 90z" stroke="none" fill="#FFFFFF" fill-rule="nonzero" />
					</g>
                    <path transform="matrix(1 0 0 1 988 210)"  d="M247 90L317.53424 307.08203L132.87321 172.91795L361.12677 172.91795L176.46577 307.08203L247 90z" stroke="none" fill="#FFFFFF" fill-rule="nonzero" />
				</g>
				<g transform="matrix(1 0 0 1 494 420)">
                    <path transform="matrix(1 0 0 1 988 210)"  d="M247 90L317.53424 307.08203L132.87321 172.91795L361.12677 172.91795L176.46577 307.08203L247 90z" stroke="none" fill="#FFFFFF" fill-rule="nonzero" />
                    <path transform="matrix(1 0 0 1 988 210)"  d="M247 90L317.53424 307.08203L132.87321 172.91795L361.12677 172.91795L176.46577 307.08203L247 90z" stroke="none" fill="#FFFFFF" fill-rule="nonzero" />
                    <path transform="matrix(1 0 0 1 988 210)"  d="M247 90L317.53424 307.08203L132.87321 172.91795L361.12677 172.91795L176.46577 307.08203L247 90z" stroke="none" fill="#FFFFFF" fill-rule="nonzero" />
                    <path transform="matrix(1 0 0 1 988 210)"  d="M247 90L317.53424 307.08203L132.87321 172.91795L361.12677 172.91795L176.46577 307.08203L247 90z" stroke="none" fill="#FFFFFF" fill-rule="nonzero" />
				</g>
			</g>
		</g>
		<g transform="matrix(1 0 0 1 1976 0)">
			<g>
				<g>
                    <path transform="matrix(1 0 0 1 988 210)"  d="M247 90L317.53424 307.08203L132.87321 172.91795L361.12677 172.91795L176.46577 307.08203L247 90z" stroke="none" fill="#FFFFFF" fill-rule="nonzero" />
                    <path transform="matrix(1 0 0 1 988 210)"  d="M247 90L317.53424 307.08203L132.87321 172.91795L361.12677 172.91795L176.46577 307.08203L247 90z" stroke="none" fill="#FFFFFF" fill-rule="nonzero" />
                    <path transform="matrix(1 0 0 1 988 210)"  d="M247 90L317.53424 307.08203L132.87321 172.91795L361.12677 172.91795L176.46577 307.08203L247 90z" stroke="none" fill="#FFFFFF" fill-rule="nonzero" />
                    <path transform="matrix(1 0 0 1 988 210)"  d="M247 90L317.53424 307.08203L132.87321 172.91795L361.12677 172.91795L176.46577 307.08203L247 90z" stroke="none" fill="#FFFFFF" fill-rule="nonzero" />
				</g>
                <path transform="matrix(1 0 0 1 988 210)"  d="M247 90L317.53424 307.08203L132.87321 172.91795L361.12677 172.91795L176.46577 307.08203L247 90z" stroke="none" fill="#FFFFFF" fill-rule="nonzero" />
			</g>
			<g transform="matrix(1 0 0 1 494 420)">
                <path transform="matrix(1 0 0 1 988 210)"  d="M247 90L317.53424 307.08203L132.87321 172.91795L361.12677 172.91795L176.46577 307.08203L247 90z" stroke="none" fill="#FFFFFF" fill-rule="nonzero" />
                <path transform="matrix(1 0 0 1 988 210)"  d="M247 90L317.53424 307.08203L132.87321 172.91795L361.12677 172.91795L176.46577 307.08203L247 90z" stroke="none" fill="#FFFFFF" fill-rule="nonzero" />
                <path transform="matrix(1 0 0 1 988 210)"  d="M247 90L317.53424 307.08203L132.87321 172.91795L361.12677 172.91795L176.46577 307.08203L247 90z" stroke="none" fill="#FFFFFF" fill-rule="nonzero" />
                <path transform="matrix(1 0 0 1 988 210)"  d="M247 90L317.53424 307.08203L132.87321 172.91795L361.12677 172.91795L176.46577 307.08203L247 90z" stroke="none" fill="#FFFFFF" fill-rule="nonzero" />
			</g>
		</g>
		<g transform="matrix(1 0 0 1 2470 0)">
			<g>
                <path transform="matrix(1 0 0 1 988 210)"  d="M247 90L317.53424 307.08203L132.87321 172.91795L361.12677 172.91795L176.46577 307.08203L247 90z" stroke="none" fill="#FFFFFF" fill-rule="nonzero" />
                <path transform="matrix(1 0 0 1 988 210)"  d="M247 90L317.53424 307.08203L132.87321 172.91795L361.12677 172.91795L176.46577 307.08203L247 90z" stroke="none" fill="#FFFFFF" fill-rule="nonzero" />
                <path transform="matrix(1 0 0 1 988 210)"  d="M247 90L317.53424 307.08203L132.87321 172.91795L361.12677 172.91795L176.46577 307.08203L247 90z" stroke="none" fill="#FFFFFF" fill-rule="nonzero" />
                <path transform="matrix(1 0 0 1 988 210)"  d="M247 90L317.53424 307.08203L132.87321 172.91795L361.12677 172.91795L176.46577 307.08203L247 90z" stroke="none" fill="#FFFFFF" fill-rule="nonzero" />
			</g>
            <path transform="matrix(1 0 0 1 988 210)"  d="M247 90L317.53424 307.08203L132.87321 172.91795L361.12677 172.91795L176.46577 307.08203L247 90z" stroke="none" fill="#FFFFFF" fill-rule="nonzero" />
		</g>
	</g>
</g>
</svg>